<?xml version="1.0" standalone="no"?>
<!DOCTYPE svg PUBLIC "-//W3C//DTD SVG 20010904//EN"
 "http://www.w3.org/TR/2001/REC-SVG-20010904/DTD/svg10.dtd">
<svg version="1.0" xmlns="http://www.w3.org/2000/svg"
 width="100.000000pt" height="58.000000pt" viewBox="0 0 100.000000 58.000000"
 preserveAspectRatio="xMidYMid meet">

<g transform="translate(0.000000,58.000000) scale(0.100000,-0.100000)"
fill="#000000" stroke="none">
<path d="M134 556 c-172 -80 -179 -321 -11 -408 81 -42 267 -18 267 33 0 19
-1 19 -32 2 -24 -13 -56 -18 -119 -18 -78 0 -89 2 -122 28 -128 98 -89 306 65
348 46 12 110 5 164 -17 39 -16 50 -14 41 10 -8 19 -98 46 -156 46 -27 0 -67
-10 -97 -24z"/>
<path d="M460 320 c0 -237 -1 -251 -20 -270 -11 -11 -29 -20 -40 -20 -11 0
-20 -7 -20 -15 0 -18 29 -20 63 -4 49 22 52 36 55 307 3 249 3 252 -17 252
-21 0 -21 -4 -21 -250z"/>
<path d="M590 350 c0 -213 1 -220 20 -220 19 0 20 8 22 192 l3 192 79 -97 c43
-53 80 -97 82 -97 2 0 38 42 80 93 42 50 80 94 86 96 6 2 8 -69 6 -188 -3
-176 -2 -191 15 -191 16 0 17 17 17 220 0 269 1 268 -120 119 l-83 -101 -21
26 c-12 14 -48 59 -81 100 -42 52 -67 75 -82 75 l-23 1 0 -220z"/>
<path d="M941 54 c0 -11 3 -14 6 -6 3 7 2 16 -1 19 -3 4 -6 -2 -5 -13z"/>
<path d="M627 33 c6 -16 23 -17 23 -2 0 5 4 8 9 4 5 -3 12 -2 15 3 2 4 -8 8
-23 7 -19 0 -27 -4 -24 -12z"/>
<path d="M826 37 c3 -9 14 -15 25 -14 26 4 33 13 14 20 -8 4 -15 1 -15 -5 0
-7 -5 -6 -15 2 -13 11 -14 10 -9 -3z"/>
<path d="M786 18 c7 -10 24 -10 24 0 0 5 -7 9 -15 9 -8 0 -12 -4 -9 -9z"/>
</g>
</svg>
