<?xml version="1.0" standalone="no"?>
<!DOCTYPE svg PUBLIC "-//W3C//DTD SVG 20010904//EN"
 "http://www.w3.org/TR/2001/REC-SVG-20010904/DTD/svg10.dtd">
<svg version="1.0" xmlns="http://www.w3.org/2000/svg"
 width="3543.000000pt" height="1181.000000pt" viewBox="0 0 3543.000000 1181.000000"
 preserveAspectRatio="xMidYMid meet">

<g transform="translate(0.000000,1181.000000) scale(0.100000,-0.100000)"
fill="#000000" stroke="none">
<path d="M13525 9584 c-506 -41 -920 -151 -1320 -352 -672 -336 -1259 -921
-1560 -1556 -153 -320 -243 -640 -292 -1026 -21 -170 -24 -631 -5 -800 86
-762 372 -1381 876 -1899 608 -623 1280 -945 2181 -1043 156 -17 651 -17 815
0 604 63 1153 223 1738 507 l172 84 0 261 c0 144 -3 260 -8 258 -4 -1 -61 -31
-127 -65 -251 -128 -554 -257 -829 -352 -922 -318 -1823 -325 -2581 -21 -317
127 -645 348 -905 609 -541 544 -799 1204 -800 2041 0 713 197 1310 602 1823
97 122 350 377 468 471 293 233 651 412 1017 506 273 71 514 95 873 87 279 -6
359 -14 619 -58 474 -80 952 -240 1434 -480 88 -44 161 -79 163 -79 2 0 4 123
4 274 l0 273 -172 73 c-574 243 -1111 387 -1661 446 -137 14 -599 26 -702 18z"/>
<path d="M17137 6023 c-2 -3288 -3 -3484 -20 -3583 -78 -457 -223 -697 -503
-832 -153 -74 -394 -99 -597 -62 -48 9 -90 15 -91 13 -5 -5 41 -459 46 -465 3
-2 47 -8 99 -14 360 -38 667 32 938 215 360 241 525 555 608 1156 16 115 17
382 20 3587 l3 3462 -250 0 -250 0 -3 -3477z"/>
<path d="M19090 6235 l0 -3266 248 2 247 1 5 2897 5 2896 1243 -1520 c684
-836 1248 -1520 1252 -1520 5 0 222 261 482 580 260 319 817 1003 1238 1519
l765 939 5 -2894 5 -2894 250 0 250 0 3 3263 2 3262 -258 0 -258 0 -1139
-1392 c-627 -765 -1186 -1447 -1241 -1514 l-101 -123 -1110 1347 c-611 741
-1172 1422 -1248 1515 l-138 167 -253 0 -254 0 0 -3265z"/>
<path d="M21480 1730 l0 -480 60 0 60 0 0 480 0 480 -60 0 -60 0 0 -480z"/>
<path d="M22210 2041 l0 -168 -52 14 c-66 18 -162 11 -222 -16 -57 -25 -122
-90 -150 -150 -30 -65 -30 -225 0 -291 65 -140 156 -180 417 -180 l127 0 0
480 0 480 -60 0 -60 0 0 -169z m-35 -265 l35 -15 0 -202 0 -201 -108 3 c-124
5 -157 20 -194 92 -25 49 -30 150 -10 208 15 42 65 97 107 115 40 18 128 17
170 0z"/>
<path d="M24250 2041 l0 -168 -52 14 c-108 29 -232 -1 -305 -75 -59 -59 -88
-133 -88 -227 0 -100 17 -159 63 -220 68 -90 162 -118 382 -113 l125 3 3 478
2 477 -65 0 -65 0 0 -169z m-35 -265 l35 -15 0 -200 0 -201 -93 0 c-76 0 -101
4 -137 23 -62 31 -90 87 -90 179 0 104 41 181 115 214 40 18 127 17 170 0z"/>
<path d="M23531 2124 c-34 -43 -26 -86 20 -109 34 -18 71 -7 94 28 47 72 -61
148 -114 81z"/>
<path d="M21181 1878 c-26 -13 -60 -43 -85 -75 l-41 -53 -3 70 -3 70 -59 0
-60 0 0 -320 0 -320 60 0 60 0 0 183 c0 100 5 199 11 220 13 49 72 114 110
122 41 9 84 -2 120 -32 16 -14 31 -24 33 -22 1 2 17 27 34 56 l31 52 -29 21
c-36 25 -93 50 -117 50 -10 0 -38 -10 -62 -22z"/>
<path d="M24728 1887 c-94 -27 -171 -106 -197 -202 -16 -58 -13 -184 4 -236
22 -63 77 -134 129 -164 89 -52 238 -53 353 0 l51 23 4 61 c1 34 2 61 2 61 -1
0 -32 -14 -68 -31 -116 -54 -227 -51 -298 9 -33 28 -67 93 -68 130 l0 22 224
0 224 0 -5 48 c-12 127 -58 210 -141 255 -61 33 -147 42 -214 24z m151 -115
c44 -22 70 -57 78 -105 l6 -37 -162 0 -162 0 6 23 c35 114 140 168 234 119z"/>
<path d="M19070 1882 c0 -4 62 -149 138 -322 108 -245 143 -316 158 -318 16
-2 33 29 108 210 49 117 92 216 95 220 4 4 48 -91 100 -212 72 -171 97 -220
111 -220 14 0 42 56 125 248 59 136 121 276 136 311 41 91 41 93 -33 89 l-62
-3 -80 -187 c-45 -103 -83 -188 -86 -188 -3 0 -41 86 -84 191 l-79 190 -45 -3
-45 -3 -78 -185 c-42 -102 -80 -184 -84 -183 -5 1 -44 85 -88 187 l-81 186
-63 0 c-35 0 -63 -3 -63 -8z"/>
<path d="M20352 1876 c-106 -27 -203 -114 -232 -209 -19 -64 -15 -178 8 -231
30 -67 93 -129 165 -162 52 -24 75 -28 147 -28 71 0 95 5 146 28 73 33 135 93
166 161 34 75 31 192 -5 268 -68 137 -239 213 -395 173z m188 -126 c70 -36
110 -104 110 -187 -1 -119 -87 -203 -210 -203 -124 0 -210 84 -210 205 0 161
164 258 310 185z"/>
<path d="M22420 1883 c0 -5 62 -150 138 -323 108 -245 143 -316 158 -318 16
-2 33 29 108 210 49 117 92 216 95 220 4 4 48 -91 100 -212 72 -171 97 -220
111 -220 14 0 42 56 125 248 59 136 121 276 136 311 41 91 41 93 -33 89 l-62
-3 -80 -187 c-45 -103 -83 -188 -86 -188 -3 0 -41 86 -84 191 l-79 190 -45 -3
-45 -3 -78 -185 c-42 -102 -81 -183 -86 -180 -4 2 -41 81 -82 175 -40 93 -78
176 -83 183 -11 13 -128 17 -128 5z"/>
<path d="M23525 1877 c-3 -7 -4 -149 -3 -317 l3 -305 58 -3 57 -3 0 321 0 320
-55 0 c-36 0 -57 -5 -60 -13z"/>
</g>
</svg>
