<?xml version="1.0" encoding="iso-8859-1"?>
<!-- Uploaded to: SVG Repo, www.svgrepo.com, Generator: SVG Repo Mixer Tools -->
<svg height="800px" width="800px" version="1.1" id="Capa_1" xmlns="http://www.w3.org/2000/svg" xmlns:xlink="http://www.w3.org/1999/xlink" 
	 viewBox="0 0 55.002 55.002" xml:space="preserve">
<g>
	<path style="fill:#010002;" d="M53.853,14.844c-0.867-0.685-1.854-0.196-1.854,0.356c0,0.553,0.399,0.986,0.707,1.293
		c0.181,0.181,0.293,0.431,0.293,0.707v1c0,0.552-0.448,0.974-1,0.974c0,0-0.233,0-0.521,0s-0.582,0.386-0.659,0.861l-0.138,0.861
		l-0.688,5.151l-2.645-2.172c-1.605-1.317-4.25-1.506-6.022-0.429l-3.188,1.938c-1.09,0.663-3.014,0.679-4.113,0.035l-0.282-0.165
		L53.119,9.727c0.432-0.346,0.501-0.975,0.154-1.405c-0.344-0.432-0.973-0.5-1.404-0.155L31.892,24.176l-1.334-0.78
		c-1.754-1.024-4.442-0.937-6.126,0.199l-0.906,0.611L3.452,8.167C3.02,7.821,2.39,7.892,2.046,8.324
		C1.701,8.756,1.772,9.385,2.203,9.729l19.575,15.64c-1.058,0.619-2.792,0.643-3.819,0.021l-3.234-1.951
		c-1.759-1.06-4.427-0.93-6.072,0.301l-3.184,2.379l-0.696-5.222c0,0-0.039-0.38-0.087-0.849S4.242,19.189,3.8,19.192
		C3.4,19.195,3,19.2,3,19.2c-0.552,0-1-0.447-1-0.999v-1c0-0.276,0.112-0.526,0.293-0.707C2.6,16.187,3,15.754,3,15.201
		s-0.987-1.041-1.854-0.356C0.449,15.395,0,16.246,0,17.201v1c0,1.654,1.346,3,3,3c0.016,0,0.411,2.888,0.918,6.643
		c0.004,0.081,0.008,0.159,0.032,0.237c0.944,6.993,2.252,16.806,2.252,16.806c0.163,1.215,1.251,2.168,2.476,2.168h38.1
		c1.226,0,2.313-0.953,2.476-2.168l3.188-23.729c1.443-0.215,2.56-1.452,2.56-2.955v-1C54.999,16.246,54.551,15.394,53.853,14.844z
		 M25.551,25.253c1.044-0.702,2.912-0.765,3.998-0.131l0.672,0.393l-2.524,2.023l-2.533-2.023L25.551,25.253z M7.783,43.495
		L5.77,28.389l4.079-3.048c0.989-0.739,2.783-0.828,3.842-0.189l3.234,1.951c1.743,1.053,4.429,0.982,6.116-0.155l0.386-0.261
		l2.669,2.132L7.783,43.495z M8.725,45.302l18.974-15.204l19.029,15.204H8.725z M47.672,43.497l-18.373-14.68l2.772-2.222
		l0.944,0.552c1.736,1.014,4.444,0.992,6.162-0.053l3.188-1.938c1.056-0.64,2.756-0.521,3.714,0.265l3.604,2.959L47.672,43.497z"/>
</g>
</svg>