<svg xmlns="http://www.w3.org/2000/svg" xmlns:xlink="http://www.w3.org/1999/xlink" xmlns:sketch="http://www.bohemiancoding.com/sketch/ns" viewBox="0 0 60 56.25" version="1.1" x="0px" y="0px"><title>cleaning-new-23</title><desc>Created with Sketch.</desc><g stroke="none" stroke-width="1" fill="none" fill-rule="evenodd" sketch:type="MSPage"><g sketch:type="MSLayerGroup" transform="translate(-1.000000, 0.000000)" fill="#000000"><path d="M8,0 L53,0 L53,45 L8,45 L8,0 Z M10,43 L51,43 L51,2 L10,2 L10,43 Z" sketch:type="MSShapeGroup"/><path d="M30.5,41 C20.299,41 12,32.701 12,22.5 C12,12.299 20.299,4 30.5,4 C40.701,4 49,12.299 49,22.5 C49,32.701 40.701,41 30.5,41 L30.5,41 Z M30.5,6 C21.402,6 14,13.402 14,22.5 C14,31.598 21.402,39 30.5,39 C39.598,39 47,31.598 47,22.5 C47,13.402 39.598,6 30.5,6 L30.5,6 Z" sketch:type="MSShapeGroup"/><path d="M3.002,38.001 C2.268,38.001 1.562,37.595 1.211,36.894 C0.717,35.906 1.117,34.705 2.106,34.211 L58.106,6.211 C59.095,5.716 60.295,6.118 60.789,7.106 C61.283,8.094 60.883,9.295 59.895,9.789 L3.895,37.789 C3.607,37.932 3.302,38.001 3.002,38.001" sketch:type="MSShapeGroup"/><path d="M58.998,39 C58.689,39 58.374,38.928 58.08,38.776 L2.08,9.776 C1.1,9.268 0.716,8.061 1.224,7.08 C1.732,6.1 2.94,5.716 3.92,6.224 L59.92,35.224 C60.901,35.732 61.284,36.939 60.776,37.92 C60.42,38.606 59.722,39 58.998,39" sketch:type="MSShapeGroup"/></g></g><text x="0" y="60" fill="#000000" font-size="5px" font-weight="bold" font-family="'Helvetica Neue', Helvetica, Arial-Unicode, Arial, Sans-serif">Created by retinaicon</text><text x="0" y="65" fill="#000000" font-size="5px" font-weight="bold" font-family="'Helvetica Neue', Helvetica, Arial-Unicode, Arial, Sans-serif">from the Noun Project</text></svg>