<svg xmlns="http://www.w3.org/2000/svg" xmlns:xlink="http://www.w3.org/1999/xlink" version="1.1" x="0px" y="0px" viewBox="0 0 2048 2560" style="enable-background:new 0 0 2048 2048;" xml:space="preserve"><g><g><g><path d="M1227.2,1062.4c-14.8,0-31.1-2.8-48.4-8.6c-39.8-13.2-82.1-40.8-118.9-77.7c-36.8-36.8-64.4-79.1-77.7-118.9     c-15.1-45.4-10.2-83.6,13.7-107.6s62.1-28.8,107.6-13.7c39.8,13.2,82.1,40.8,118.9,77.7s64.4,79.1,77.7,118.9     c15.1,45.4,10.2,83.6-13.7,107.6C1271.6,1054.9,1251.3,1062.4,1227.2,1062.4z M1055.3,775.4c-11.1,0-20,2.7-25.4,8.2     c-10.1,10.1-10.9,32-2.1,58.5c10.8,32.4,34.8,68.9,66.1,100.1l0,0c31.2,31.2,67.7,55.3,100.1,66c26.5,8.8,48.4,8,58.5-2.1     c10.1-10.1,10.9-32,2.1-58.5c-10.8-32.4-34.8-68.9-66.1-100.1c-31.2-31.2-67.7-55.3-100.1-66     C1076.1,777.4,1064.8,775.4,1055.3,775.4z"/></g><g><path d="M977.1,621.4H737c-13.2,0-24-10.8-24-24v-17.6c0-57.3,46.6-103.9,103.9-103.9h80.2c57.3,0,103.9,46.6,103.9,103.9v17.6     C1001.1,610.7,990.4,621.4,977.1,621.4z M761.4,573.4h191.4c-3.2-27.8-26.9-49.5-55.6-49.5H817     C788.3,523.9,764.6,545.6,761.4,573.4z"/></g><g><path d="M1270.7,1550.1H793.3c-74.9,0-135.8-60.9-135.8-135.8V908.9c0-88.2,15.6-160.6,46.3-215.3c14.8-26.5,30-42.7,40.1-51.6     v-44.5c0-13.2,10.8-24,24-24s24,10.8,24,24v56.2c0,8.6-3.9,16.1-11.3,20.4c-1.8,1.2-19.5,14-37,46.8c-17.4,32.5-38,91.4-38,188.1     v505.4c0,48.4,39.4,87.8,87.8,87.8h477.4c48.4,0,87.8-39.4,87.8-87.8V1034c0-86.5-30.9-169.7-87.1-234.1     c-1.6-1.8-3.3-3.7-5.2-5.8c-67-74-163.4-116.4-264.3-116.4h-55.6c-13.2,0-24-10.8-24-24v-56.2c0-13.2,10.8-24,24-24     s24,10.8,24,24v32.2h31.6c114.5,0,223.8,48.2,299.9,132.2c2.1,2.3,4,4.5,5.8,6.5c63.8,73.2,98.9,167.5,98.9,265.6v380.3     C1406.5,1489.2,1345.6,1550.1,1270.7,1550.1z M780.4,674.1C780.4,674.1,780.4,674.1,780.4,674.1     C780.4,674.1,780.4,674.1,780.4,674.1z"/></g><g><path d="M1382.5,1149.4h-155.4c-39.3,0-80.8-11.2-123.3-33.3c-36.8-19.1-73.3-46.3-105.5-78.4c-46.2-46.2-81.3-100.6-98.7-153     c-2-5.9-3.7-11.8-5.2-17.5c-7.5-28.7-33.3-48.7-62.8-48.7H692.5c-13.2,0-24-10.8-24-24s10.8-24,24-24h139.1     c51.3,0,96.2,34.8,109.2,84.6c1.2,4.8,2.7,9.6,4.3,14.5c15.1,45.5,46,93.1,87.1,134.2c28.7,28.8,61.1,52.9,93.6,69.8     c35.6,18.5,69.6,27.9,101.2,27.9h155.4c13.2,0,24,10.8,24,24S1395.7,1149.4,1382.5,1149.4z"/></g><g><path d="M1382.5,1438.3h-701c-13.2,0-24-10.8-24-24s10.8-24,24-24h701c13.2,0,24,10.8,24,24S1395.8,1438.3,1382.5,1438.3z"/></g></g><g><g><path d="M1022.7,1792c-72.7,0-144.7-10.3-214.8-30.9c-95.3-28-183.2-73.6-261.3-135.6c-78.1-62-142.5-137.2-191.4-223.7     c-50.6-89.5-82.3-187.1-94.1-290.1c-11.9-103-3.2-205.2,25.8-303.9c28-95.3,73.6-183.2,135.6-261.3     c62-78.1,137.2-142.5,223.7-191.4c89.5-50.6,187.1-82.3,290.1-94.1s205.2-3.2,303.9,25.8c95.3,28,183.2,73.6,261.3,135.6     c78.1,62,142.5,137.2,191.4,223.7c50.6,89.5,82.3,187.1,94.1,290.1s3.2,205.2-25.8,303.9c-28,95.3-73.6,183.2-135.6,261.3     s-137.2,142.5-223.7,191.4c-89.5,50.6-187.1,82.3-290.1,94.1C1082,1790.3,1052.3,1792,1022.7,1792z M1025.4,304     c-27.8,0-55.7,1.6-83.7,4.8c-191,22-362.1,117-481.6,267.7s-173.3,338.8-151.3,529.8c45.4,394.4,403.1,678.3,797.5,632.9     c394.4-45.4,678.3-403.1,632.9-797.5c-22-191-117-362.1-267.7-481.6C1343,358.1,1187.1,304,1025.4,304z"/></g><g><path d="M711.8,1723.4c-11.9,0-22.3-8.9-23.8-21c-0.6-4.4,0.1-9,2-13.1l624.3-1350.8c5.6-12,19.8-17.3,31.8-11.7     s17.3,19.8,11.7,31.9L733.8,1709c-3.3,7.5-10.3,13.1-19,14.2C713.8,1723.3,712.8,1723.4,711.8,1723.4z"/></g></g></g><text x="0" y="2063" fill="#000000" font-size="5px" font-weight="bold" font-family="'Helvetica Neue', Helvetica, Arial-Unicode, Arial, Sans-serif">Created by Iconbunny</text><text x="0" y="2068" fill="#000000" font-size="5px" font-weight="bold" font-family="'Helvetica Neue', Helvetica, Arial-Unicode, Arial, Sans-serif">from the Noun Project</text></svg>