<?xml version="1.0" encoding="iso-8859-1"?>
<!-- Uploaded to: SVG Repo, www.svgrepo.com, Generator: SVG Repo Mixer Tools -->
<svg fill="#000000" height="800px" width="800px" version="1.1" id="Layer_1" xmlns="http://www.w3.org/2000/svg" xmlns:xlink="http://www.w3.org/1999/xlink" 
	 viewBox="0 0 490.659 490.659" xml:space="preserve">
<g>
	<g>
		<g>
			<path d="M277.329,255.998c-11.755,0-21.333,9.579-21.333,21.333v64c0,11.755,9.579,21.333,21.333,21.333
				s21.333-9.579,21.333-21.333v-64C298.663,265.577,289.063,255.998,277.329,255.998z"/>
			<path d="M481.17,42.729c-5.739-0.555-11.115,3.563-11.776,9.429l-10.56,95.637c-0.021,0.128-0.085,0.235-0.107,0.363
				l-0.192,1.728c-0.064,0.832-0.277,1.664-0.576,2.496c-0.235,0.597-0.533,1.195-0.875,1.813c-0.32,0.555-0.683,1.109-1.109,1.643
				c-0.555,0.704-1.173,1.408-1.899,2.112c-0.405,0.405-0.875,0.789-1.344,1.173c-0.917,0.768-1.92,1.536-3.029,2.283
				c-0.427,0.277-0.917,0.555-1.365,0.832c-1.28,0.768-2.624,1.493-4.096,2.197c-0.512,0.235-1.088,0.448-1.621,0.683
				c-1.536,0.661-3.093,1.28-4.8,1.856c-0.747,0.235-1.557,0.427-2.325,0.661c-1.621,0.469-3.243,0.939-4.992,1.301
				c-1.28,0.277-2.645,0.448-3.989,0.661c-1.387,0.213-2.731,0.491-4.181,0.64c-2.901,0.299-5.888,0.491-9.003,0.491
				c-25.941,0-45.333-11.264-45.333-21.333c0-5.888-4.779-10.667-10.667-10.667c-5.888,0-10.667,4.779-10.667,10.667
				c0,10.069-19.392,21.333-45.333,21.333s-45.333-11.328-45.333-21.397c0-5.888-4.779-10.667-10.667-10.667
				s-10.667,4.779-10.667,10.667c0,10.069-19.392,21.333-45.333,21.333s-45.333-11.264-45.333-21.333
				c0-5.888-4.779-10.667-10.667-10.667s-10.667,4.779-10.667,10.667c0,10.069-19.392,21.333-45.333,21.333
				c-3.115,0-6.123-0.171-9.003-0.491c-1.216-0.128-2.325-0.363-3.499-0.533c-1.621-0.256-3.285-0.469-4.843-0.811
				c-1.131-0.235-2.155-0.555-3.221-0.853c-1.536-0.405-3.072-0.811-4.48-1.28c-0.725-0.256-1.408-0.533-2.112-0.789
				c-1.728-0.683-3.456-1.387-4.992-2.155c-0.192-0.107-0.384-0.213-0.576-0.32c-7.893-4.203-12.651-9.728-12.672-15.275l-10.667-96
				c-0.64-5.845-5.824-10.091-11.776-9.429C3.665,43.39-0.559,48.66,0.06,54.505l10.603,94.827c0,1.941,0.192,3.883,0.576,5.803
				l27.264,245.419c3.008,27.051,25.813,47.445,53.013,47.445h307.627c27.2,0,50.005-20.395,53.013-47.445l27.264-245.419
				c0.235-1.195,0.277-2.432,0.363-3.648c0.021-0.341,0.149-0.64,0.149-0.981l10.667-96C491.217,48.66,487.015,43.39,481.17,42.729z
				 M213.329,341.332c0,23.531-19.136,42.667-42.667,42.667c-23.531,0-42.667-14.357-42.667-32c0-5.888,4.779-10.667,10.667-10.667
				s10.667,4.779,10.667,10.667c0,3.669,8.32,10.667,21.333,10.667c11.755,0,21.333-9.579,21.333-21.333
				c0-11.755-9.579-21.333-21.333-21.333h-10.667c-5.888,0-10.667-4.779-10.667-10.667s4.779-10.667,10.667-10.667h10.667
				c11.755,0,21.333-9.579,21.333-21.333s-9.579-21.333-21.333-21.333c-13.013,0-21.333,6.997-21.333,10.667
				c0,5.888-4.779,10.667-10.667,10.667s-10.667-4.779-10.667-10.667c0-17.643,19.136-32,42.667-32
				c23.531,0,42.667,19.136,42.667,42.667c0,12.8-5.781,24.171-14.741,32C207.548,317.161,213.329,328.532,213.329,341.332z
				 M319.996,341.332c0,23.531-19.136,42.667-42.667,42.667s-42.667-19.136-42.667-42.667v-64c0-23.531,19.136-42.667,42.667-42.667
				s42.667,19.136,42.667,42.667V341.332z M373.329,277.332c-17.643,0-32-14.357-32-32s14.357-32,32-32c17.643,0,32,14.357,32,32
				S390.951,277.332,373.329,277.332z"/>
			<path d="M373.329,234.665c-5.888,0-10.667,4.779-10.667,10.667s4.779,10.667,10.667,10.667c5.888,0,10.667-4.779,10.667-10.667
				S379.217,234.665,373.329,234.665z"/>
		</g>
	</g>
</g>
</svg>